<svg xmlns="http://www.w3.org/2000/svg" xmlns:xlink="http://www.w3.org/1999/xlink" viewBox="0 0 14 10" version="1.1" x="0px" y="0px"><title>Shape</title><desc>Created with Sketch.</desc><g stroke="none" stroke-width="1" fill="none" fill-rule="evenodd"><g transform="translate(-1068.000000, -460.000000)" fill="#000000" fill-rule="nonzero"><g transform="translate(909.000000, 161.000000)"><g transform="translate(26.000000, 295.000000)"><path d="M136.279376,4.18867604 C135.906875,4.55787256 135.906875,5.15671932 136.279376,5.52591584 C136.652015,5.89511236 137.256087,5.89511236 137.628725,5.52591584 L139.045915,4.12130128 L139.045915,14.0543814 C139.045915,14.576633 139.473073,15 140,15 C140.526927,15 140.954085,14.576633 140.954085,14.0543814 L140.954085,4.12143636 L142.371275,5.52605093 C142.557594,5.71071673 142.80184,5.80298209 143.045949,5.80298209 C143.290059,5.80298209 143.534304,5.71058165 143.720624,5.52605093 C144.093125,5.15685441 144.093125,4.55800765 143.720624,4.18881113 L140.857995,1.35171947 C140.385041,0.882692636 139.615368,0.882827725 139.141733,1.35171947 L136.279376,4.18867604 Z" transform="translate(140.000000, 8.000000) rotate(90.000000) translate(-140.000000, -8.000000) "/></g></g></g></g><text x="0" y="23" fill="#000000" font-size="5px" font-weight="bold" font-family="'Helvetica Neue', Helvetica, Arial-Unicode, Arial, Sans-serif">Created by Ilaria Niccolini</text><text x="0" y="28" fill="#000000" font-size="5px" font-weight="bold" font-family="'Helvetica Neue', Helvetica, Arial-Unicode, Arial, Sans-serif">from the Noun Project</text></svg>