<svg xmlns="http://www.w3.org/2000/svg" xmlns:xlink="http://www.w3.org/1999/xlink" viewBox="0 0 27 25" version="1.1" x="0px" y="0px"><title>LINES</title><desc>Created with Sketch.</desc><g stroke="none" stroke-width="1" fill="none" fill-rule="evenodd"><g transform="translate(-1284.000000, -480.000000)" fill="#000000" fill-rule="nonzero"><g transform="translate(1275.000000, 467.000000)"><g transform="translate(9.000000, 13.000000)"><path d="M3,8.7 C2.28202983,8.7 1.7,9.28202983 1.7,10 C1.7,10.7179702 2.28202983,11.3 3,11.3 L24,11.3 C24.7179702,11.3 25.3,10.7179702 25.3,10 C25.3,9.28202983 24.7179702,8.7 24,8.7 L3,8.7 Z M3,7 L24,7 C25.6568542,7 27,8.34314575 27,10 C27,11.6568542 25.6568542,13 24,13 L3,13 C1.34314575,13 0,11.6568542 0,10 C0,8.34314575 1.34314575,7 3,7 Z"/><path d="M3,1.7 C2.28202983,1.7 1.7,2.28202983 1.7,3 C1.7,3.71797017 2.28202983,4.3 3,4.3 L24,4.3 C24.7179702,4.3 25.3,3.71797017 25.3,3 C25.3,2.28202983 24.7179702,1.7 24,1.7 L3,1.7 Z M3,5.68434189e-14 L24,5.68434189e-14 C25.6568542,5.68434189e-14 27,1.34314575 27,3 C27,4.65685425 25.6568542,6 24,6 L3,6 C1.34314575,6 0,4.65685425 0,3 C0,1.34314575 1.34314575,5.68434189e-14 3,5.68434189e-14 Z"/><path d="M3,15.7 C2.28202983,15.7 1.7,16.2820298 1.7,17 C1.7,17.7179702 2.28202983,18.3 3,18.3 L24,18.3 C24.7179702,18.3 25.3,17.7179702 25.3,17 C25.3,16.2820298 24.7179702,15.7 24,15.7 L3,15.7 Z M3,14 L24,14 C25.6568542,14 27,15.3431458 27,17 C27,18.6568542 25.6568542,20 24,20 L3,20 C1.34314575,20 0,18.6568542 0,17 C0,15.3431458 1.34314575,14 3,14 Z"/></g></g></g></g><text x="0" y="35" fill="#000000" font-size="5px" font-weight="bold" font-family="'Helvetica Neue', Helvetica, Arial-Unicode, Arial, Sans-serif">Created by Ilaria Niccolini</text><text x="0" y="40" fill="#000000" font-size="5px" font-weight="bold" font-family="'Helvetica Neue', Helvetica, Arial-Unicode, Arial, Sans-serif">from the Noun Project</text></svg>